<svg width="32" height="32" viewBox="0 0 32 32" fill="none" xmlns="http://www.w3.org/2000/svg">
    <path fill-rule="evenodd" clip-rule="evenodd" d="M16 8V4.5184L19.4816 8H16ZM16.0048 0H1.6C0.7152 0 0 0.7152 0 1.6V30.4C0 31.2848 0.7152 32 1.6 32H22.4C23.2848 32 24 31.2848 24 30.4V25.6H20.8V28.8H3.2V3.2H12.8V9.6C12.8 10.4848 13.5152 11.2 14.4 11.2H20.8V14.4H24V7.9952L16.0048 0Z" fill="#0052C2"/>
    <path fill-rule="evenodd" clip-rule="evenodd" d="M16.5656 18.2374C16.3864 17.9686 16.1176 17.7894 15.6232 17.7894H14.7608V22.271H15.6232C16.1176 22.271 16.3864 22.0918 16.5656 21.823C16.7224 21.6006 16.7784 21.3878 16.7784 20.031C16.7784 18.6854 16.7224 18.463 16.5656 18.2374ZM17.9096 23.2358C17.3608 23.7846 16.588 24.0198 15.7576 24.0198H12.7992V16.0422H15.7576C16.588 16.0422 17.3608 16.2758 17.9096 16.8262C18.8408 17.7558 18.7384 18.7766 18.7384 20.031C18.7384 21.2854 18.8408 22.3062 17.9096 23.2358Z" fill="#0052C2"/>
    <path fill-rule="evenodd" clip-rule="evenodd" d="M23.4312 18.0702C23.2856 17.8798 23.004 17.7214 22.6472 17.7214C22.2872 17.7214 22.0072 17.8798 21.8632 18.0702C21.6824 18.3038 21.5704 18.5726 21.5704 20.0318C21.5704 21.4878 21.6824 21.7454 21.8632 21.9806C22.0072 22.171 22.2872 22.339 22.6472 22.339C23.004 22.339 23.2856 22.171 23.4312 21.9806C23.6104 21.7454 23.7224 21.4878 23.7224 20.0318C23.7224 18.5726 23.6104 18.3038 23.4312 18.0702ZM24.876 23.1902C24.2936 23.7726 23.6216 24.0878 22.6472 24.0878C21.6712 24.0878 20.9976 23.7726 20.4168 23.1902C19.5768 22.3502 19.6088 21.2302 19.6088 20.0318C19.6088 18.8318 19.5768 17.7102 20.4168 16.8702C20.9976 16.2878 21.6712 15.9742 22.6472 15.9742C23.6216 15.9742 24.2936 16.2878 24.876 16.8702C25.7176 17.7102 25.6824 18.8318 25.6824 20.0318C25.6824 21.2302 25.7176 22.3502 24.876 23.1902Z" fill="#0052C2"/>
    <path fill-rule="evenodd" clip-rule="evenodd" d="M30.039 17.789V24.021H28.0758V17.789H26.1158V16.0418H32.0006V17.789H30.039Z" fill="#0052C2"/>
</svg>
