<svg width="32" height="32" viewBox="0 0 32 32" fill="none" xmlns="http://www.w3.org/2000/svg">
    <path fill-rule="evenodd" clip-rule="evenodd" d="M16 8V4.5184L19.4816 8H16ZM16.0048 0H1.6C0.7152 0 0 0.7152 0 1.6V30.4C0 31.2848 0.7152 32 1.6 32H22.4C23.2848 32 24 31.2848 24 30.4V25.6H20.8V28.8H3.2V3.2H12.8V9.6C12.8 10.4848 13.5152 11.2 14.4 11.2H20.8V14.4H24V7.9952L16.0048 0Z" fill="#0052C2"/>
    <path fill-rule="evenodd" clip-rule="evenodd" d="M8.20944 18.2374C8.03184 17.9686 7.76144 17.7894 7.26864 17.7894H6.40624V22.271H7.26864C7.76144 22.271 8.03184 22.0918 8.20944 21.823C8.36784 21.6006 8.42384 21.3878 8.42384 20.031C8.42384 18.6854 8.36784 18.463 8.20944 18.2374ZM9.55504 23.2358C9.00624 23.7846 8.23344 24.0198 7.40304 24.0198H4.44464V16.0422H7.40304C8.23344 16.0422 9.00624 16.2758 9.55504 16.8262C10.4846 17.7558 10.3838 18.7766 10.3838 20.031C10.3838 21.2854 10.4846 22.3062 9.55504 23.2358Z" fill="#0052C2"/>
    <path fill-rule="evenodd" clip-rule="evenodd" d="M15.075 18.0702C14.9294 17.8798 14.6494 17.7214 14.291 17.7214C13.9326 17.7214 13.651 17.8798 13.507 18.0702C13.3262 18.3038 13.2158 18.5726 13.2158 20.0318C13.2158 21.4878 13.3262 21.7454 13.507 21.9806C13.651 22.171 13.9326 22.339 14.291 22.339C14.6494 22.339 14.9294 22.171 15.075 21.9806C15.2542 21.7454 15.3678 21.4878 15.3678 20.0318C15.3678 18.5726 15.2542 18.3038 15.075 18.0702ZM16.5198 23.1902C15.939 23.7726 15.2654 24.0878 14.291 24.0878C13.315 24.0878 12.643 23.7726 12.0606 23.1902C11.2206 22.3502 11.2542 21.2302 11.2542 20.0318C11.2542 18.8318 11.2206 17.7102 12.0606 16.8702C12.643 16.2878 13.315 15.9742 14.291 15.9742C15.2654 15.9742 15.939 16.2878 16.5198 16.8702C17.3614 17.7102 17.3278 18.8318 17.3278 20.0318C17.3278 21.2302 17.3614 22.3502 16.5198 23.1902Z" fill="#0052C2"/>
    <path fill-rule="evenodd" clip-rule="evenodd" d="M21.6829 17.789V24.021H19.7213V17.789H17.7613V16.0418H23.6445V17.789H21.6829Z" fill="#0052C2"/>
    <path fill-rule="evenodd" clip-rule="evenodd" d="M30.039 24.0203V20.1979L28.9078 22.1723H27.6534L26.5206 20.1979V24.0203H24.559V16.0427H26.487L28.279 19.5611L30.0726 16.0427H32.0006V24.0203H30.039Z" fill="#0052C2"/>
</svg>
