<svg width="32" height="32" viewBox="0 0 32 32" fill="none" xmlns="http://www.w3.org/2000/svg">
    <g id="Icon">
        <g id="Icon / Document / TIFF">
            <path fill-rule="evenodd" clip-rule="evenodd" d="M24.6118 14.4V7.9952L16.6166 0H2.21176C1.32696 0 0.611755 0.7152 0.611755 1.6V30.4C0.611755 31.2848 1.32696 32 2.21176 32H23.0118C23.8966 32 24.6118 31.2848 24.6118 30.4V25.6H21.4118V28.8H3.81176V3.2H13.4118V9.6C13.4118 10.4848 14.127 11.2 15.0118 11.2H21.4118V14.4H24.6118ZM16.6118 8V4.51839L20.0934 8H16.6118Z" fill="#0052C2"/>
            <path d="M15.139 16.042V17.7892H13.1774V24.0212H11.2142L11.2142 17.7892H9.25421L9.25416 16.042L15.139 16.042Z" fill="#0052C2"/>
            <path d="M16.1653 24.0203V16.0427H18.1269L18.1269 24.0203L16.1653 24.0203Z" fill="#0052C2"/>
            <path d="M21.4744 17.7892V19.1908H24.4344V20.9396H21.4744V24.0212H19.5128V16.042H24.9368V17.7892H21.4744Z" fill="#0052C2"/>
            <path d="M27.9259 19.1908V17.7892H31.3883V16.042H25.9643V24.0212H27.9259V20.9396H30.8859V19.1908H27.9259Z" fill="#0052C2"/>
        </g>
    </g>
</svg>
