<svg width="32" height="32" viewBox="0 0 32 32" fill="none" xmlns="http://www.w3.org/2000/svg">
    <g id="Icon">
        <g id="Icon / XLSM">
            <path fill-rule="evenodd" clip-rule="evenodd" d="M16 8V4.5184L19.4816 8H16ZM16.0048 0H1.6C0.7152 0 0 0.7152 0 1.6V30.4C0 31.2848 0.7152 32 1.6 32H22.4C23.2848 32 24 31.2848 24 30.4V25.6H20.8V28.8H3.2V3.2H12.8V9.6C12.8 10.4848 13.5152 11.2 14.4 11.2H20.8V14.4H24V7.9952L16.0048 0Z" fill="#0052C2"/>
            <path fill-rule="evenodd" clip-rule="evenodd" d="M9.09536 24.0203L7.78496 21.5659L6.47296 24.0203H4.23136L6.71936 19.9291L4.38976 16.0427H6.61856L7.78496 18.2939L8.94976 16.0427H11.1802L8.84896 19.9291L11.3354 24.0203H9.09536Z" fill="#0052C2"/>
            <path fill-rule="evenodd" clip-rule="evenodd" d="M11.9157 24.0203V16.0427H13.8773V22.2715H17.2261V24.0203H11.9157Z" fill="#0052C2"/>
            <path fill-rule="evenodd" clip-rule="evenodd" d="M20.6422 24.0874C19.4198 24.0874 18.4214 23.8634 17.615 23.0346L18.871 21.7802C19.2854 22.193 20.0134 22.3386 20.6534 22.3386C21.4262 22.3386 21.7958 22.081 21.7958 21.6218C21.7958 21.4314 21.751 21.2746 21.639 21.1514C21.5382 21.0506 21.3702 20.9722 21.1126 20.9386L20.1478 20.8042C19.4422 20.7034 18.9046 20.4682 18.5446 20.0986C18.1766 19.7178 17.9974 19.1802 17.9974 18.4954C17.9974 17.0394 19.095 15.9754 20.911 15.9754C22.0534 15.9754 22.9158 16.2442 23.6006 16.9258L22.367 18.1594C21.863 17.6538 21.2022 17.689 20.855 17.689C20.1702 17.689 19.8902 18.081 19.8902 18.4282C19.8902 18.529 19.9254 18.6746 20.047 18.7978C20.1478 18.8986 20.3174 18.9994 20.5974 19.0346L21.5606 19.169C22.2774 19.2682 22.7942 19.4938 23.1302 19.8298C23.5542 20.2442 23.7238 20.8378 23.7238 21.5786C23.7238 23.201 22.3222 24.0874 20.6422 24.0874Z" fill="#0052C2"/>
            <path fill-rule="evenodd" clip-rule="evenodd" d="M30.039 24.0203V20.1979L28.9078 22.1723H27.6534L26.5206 20.1979V24.0203H24.559V16.0427H26.487L28.279 19.5611L30.0726 16.0427H32.0006V24.0203H30.039Z" fill="#0052C2"/>
        </g>
    </g>
</svg>
