<svg width="32" height="32" viewBox="0 0 32 32" fill="none" xmlns="http://www.w3.org/2000/svg">
    <path fill-rule="evenodd" clip-rule="evenodd" d="M16 8V4.5184L19.4816 8H16ZM16.0048 0H1.6C0.7152 0 0 0.7152 0 1.6V30.4C0 31.2848 0.7152 32 1.6 32H22.4C23.2848 32 24 31.2848 24 30.4V25.6H20.8V28.8H3.2V3.2H12.8V9.6C12.8 10.4848 13.5152 11.2 14.4 11.2H20.8V14.4H24V7.9952L16.0048 0Z" fill="#0052C2"/>
    <path fill-rule="evenodd" clip-rule="evenodd" d="M15.3766 24.0874C14.447 24.0874 13.7414 23.7738 13.1574 23.1898C12.3174 22.3498 12.351 21.2298 12.351 20.0314C12.351 18.8314 12.3174 17.7114 13.1574 16.8698C13.7414 16.2874 14.447 15.9754 15.3766 15.9754C16.8886 15.9754 18.111 16.8138 18.4022 18.5738H16.4086C16.2838 18.1258 16.0374 17.721 15.3878 17.721C15.0294 17.721 14.7606 17.8682 14.6134 18.0586C14.4358 18.2938 14.3126 18.5738 14.3126 20.0314C14.3126 21.4874 14.4358 21.7674 14.6134 22.0026C14.7606 22.193 15.0294 22.3386 15.3878 22.3386C16.0374 22.3386 16.2838 21.9354 16.4086 21.4874H18.4022C18.111 23.2474 16.8886 24.0874 15.3766 24.0874Z" fill="#0052C2"/>
    <path fill-rule="evenodd" clip-rule="evenodd" d="M21.9282 24.0874C20.7058 24.0874 19.709 23.8634 18.9026 23.0346L20.1586 21.7802C20.5714 22.193 21.2994 22.3386 21.9394 22.3386C22.7122 22.3386 23.0834 22.081 23.0834 21.6218C23.0834 21.4314 23.037 21.2746 22.925 21.1514C22.8258 21.0506 22.6562 20.9722 22.3986 20.9386L21.4338 20.8042C20.7298 20.7034 20.1906 20.4682 19.8322 20.0986C19.4626 19.7178 19.2834 19.1802 19.2834 18.4954C19.2834 17.0394 20.381 15.9754 22.197 15.9754C23.341 15.9754 24.2034 16.2442 24.8866 16.9258L23.653 18.1594C23.1506 17.6538 22.4898 17.689 22.141 17.689C21.4578 17.689 21.1762 18.081 21.1762 18.4282C21.1762 18.529 21.2114 18.6746 21.3346 18.7978C21.4338 18.8986 21.6034 18.9994 21.8834 19.0346L22.8466 19.169C23.5634 19.2682 24.0802 19.4938 24.4162 19.8298C24.8418 20.2442 25.0098 20.8378 25.0098 21.5786C25.0098 23.201 23.6098 24.0874 21.9282 24.0874Z" fill="#0052C2"/>
    <path fill-rule="evenodd" clip-rule="evenodd" d="M29.3547 24.0203H27.8987L25.2635 16.0427H27.2923L28.6379 20.5019L29.9595 16.0427H31.9995L29.3547 24.0203Z" fill="#0052C2"/>
</svg>
