<svg width="32" height="32" viewBox="0 0 32 32" fill="none" xmlns="http://www.w3.org/2000/svg">
    <g id="Icon">
        <path id="Icon / Document / EPS" fill-rule="evenodd" clip-rule="evenodd" d="M16.6327 0H2.22787C1.34307 0 0.627869 0.7152 0.627869 1.6V30.4C0.627869 31.2848 1.34307 32 2.22787 32H23.0279C23.9127 32 24.6279 31.2848 24.6279 30.4V25.6H21.4279V28.8H3.82787V3.2H13.4279V9.6C13.4279 10.4848 14.1431 11.2 15.0279 11.2H21.4279V14.4H24.6279V7.9952L16.6327 0ZM16.6279 8V4.51839L20.1095 8H16.6279ZM12.1826 24.0203V16.0427H17.6066V17.7883H14.1442V19.1227H17.1026V20.8715H14.1442V22.2715H17.6066V24.0203H12.1826ZM20.9534 17.8016H22.0622C22.5998 17.8016 22.9134 18.1936 22.9134 18.608C22.9134 19.0224 22.5998 19.4144 22.0622 19.4144H20.9534V17.8016ZM20.9534 21.1728H22.1534C23.923 21.1728 24.875 19.9184 24.875 18.608C24.875 17.2976 23.923 16.0416 22.1534 16.0416H18.9918V24.0208H20.9534V21.1728ZM25.2633 23.0347C26.0697 23.8635 27.0681 24.0875 28.2905 24.0875C29.9705 24.0875 31.3721 23.2011 31.3721 21.5787C31.3721 20.8379 31.2025 20.2443 30.7785 19.8299C30.4425 19.4939 29.9257 19.2683 29.2089 19.1691L28.2457 19.0347C27.9657 18.9995 27.7961 18.8987 27.6953 18.7979C27.5737 18.6747 27.5385 18.5291 27.5385 18.4283C27.5385 18.0811 27.8185 17.6891 28.5033 17.6891C28.5235 17.6891 28.5448 17.689 28.5671 17.6889C28.927 17.6868 29.5407 17.6834 30.0153 18.1595L31.2489 16.9259C30.5641 16.2443 29.7017 15.9755 28.5593 15.9755C26.7433 15.9755 25.6457 17.0395 25.6457 18.4955C25.6457 19.1803 25.8249 19.7179 26.1929 20.0987C26.5529 20.4683 27.0905 20.7035 27.7961 20.8043L28.7609 20.9387C29.0185 20.9723 29.1865 21.0507 29.2873 21.1515C29.3993 21.2747 29.4441 21.4315 29.4441 21.6219C29.4441 22.0811 29.0745 22.3387 28.3017 22.3387C27.6617 22.3387 26.9337 22.1931 26.5193 21.7803L25.2633 23.0347Z" fill="#0052C2"/>
    </g>
</svg>
