<svg width="32" height="32" viewBox="0 0 32 32" fill="none" xmlns="http://www.w3.org/2000/svg">
    <path fill-rule="evenodd" clip-rule="evenodd" d="M16 8V4.5184L19.4816 8H16ZM16.0048 0H1.6C0.7152 0 0 0.7152 0 1.6V30.4C0 31.2848 0.7152 32 1.6 32H22.4C23.2848 32 24 31.2848 24 30.4V25.6H20.8V28.8H3.2V3.2H12.8V9.6C12.8 10.4848 13.5152 11.2 14.4 11.2H20.8V14.4H24V7.9952L16.0048 0Z" fill="#0052C2"/>
    <path fill-rule="evenodd" clip-rule="evenodd" d="M9.12816 18.2374C8.95056 17.9686 8.68016 17.7894 8.18736 17.7894H7.32496V22.271H8.18736C8.68016 22.271 8.95056 22.0918 9.12816 21.823C9.28656 21.6006 9.34256 21.3878 9.34256 20.031C9.34256 18.6854 9.28656 18.463 9.12816 18.2374ZM10.4738 23.2358C9.92496 23.7846 9.15216 24.0198 8.32176 24.0198H5.36336V16.0422H8.32176C9.15216 16.0422 9.92496 16.2758 10.4738 16.8262C11.4034 17.7558 11.3026 18.7766 11.3026 20.031C11.3026 21.2854 11.4034 22.3062 10.4738 23.2358Z" fill="#0052C2"/>
    <path fill-rule="evenodd" clip-rule="evenodd" d="M15.9938 18.0702C15.8482 17.8798 15.5682 17.7214 15.2098 17.7214C14.8514 17.7214 14.5698 17.8798 14.4258 18.0702C14.245 18.3038 14.1346 18.5726 14.1346 20.0318C14.1346 21.4878 14.245 21.7454 14.4258 21.9806C14.5698 22.171 14.8514 22.339 15.2098 22.339C15.5682 22.339 15.8482 22.171 15.9938 21.9806C16.173 21.7454 16.2866 21.4878 16.2866 20.0318C16.2866 18.5726 16.173 18.3038 15.9938 18.0702ZM17.4386 23.1902C16.8578 23.7726 16.1842 24.0878 15.2098 24.0878C14.2338 24.0878 13.5618 23.7726 12.9794 23.1902C12.1394 22.3502 12.173 21.2302 12.173 20.0318C12.173 18.8318 12.1394 17.7102 12.9794 16.8702C13.5618 16.2878 14.2338 15.9742 15.2098 15.9742C16.1842 15.9742 16.8578 16.2878 17.4386 16.8702C18.2802 17.7102 18.2466 18.8318 18.2466 20.0318C18.2466 21.2302 18.2802 22.3502 17.4386 23.1902Z" fill="#0052C2"/>
    <path fill-rule="evenodd" clip-rule="evenodd" d="M22.6016 17.789V24.021H20.64V17.789H18.68V16.0418H24.5632V17.789H22.6016Z" fill="#0052C2"/>
    <path fill-rule="evenodd" clip-rule="evenodd" d="M29.7594 24.0203L28.449 21.5659L27.137 24.0203H24.8954L27.3834 19.9291L25.0538 16.0427H27.2826L28.449 18.2939L29.6138 16.0427H31.8442L29.513 19.9291L31.9994 24.0203H29.7594Z" fill="#0052C2"/>
</svg>
