<svg width="32" height="32" viewBox="0 0 32 32" fill="none" xmlns="http://www.w3.org/2000/svg">
    <path fill-rule="evenodd" clip-rule="evenodd" d="M16 8V4.5184L19.4816 8H16ZM16.0048 0H1.6C0.7152 0 0 0.7152 0 1.6V30.4C0 31.2848 0.7152 32 1.6 32H22.4C23.2848 32 24 31.2848 24 30.4V25.6H20.8V28.8H3.2V3.2H12.8V9.6C12.8 10.4848 13.5152 11.2 14.4 11.2H20.8V14.4H24V7.9952L16.0048 0Z" fill="#0052C2"/>
    <path fill-rule="evenodd" clip-rule="evenodd" d="M15.7813 17.764H14.6725V19.3768H15.7813C16.3189 19.3768 16.6325 18.9848 16.6325 18.5704C16.6325 18.156 16.3189 17.764 15.7813 17.764ZM15.8725 21.1352H14.6725V23.9832H12.7109V16.004H15.8725C17.6421 16.004 18.5941 17.26 18.5941 18.5704C18.5941 19.8808 17.6421 21.1352 15.8725 21.1352Z" fill="#0052C2"/>
    <path fill-rule="evenodd" clip-rule="evenodd" d="M23.275 18.2C23.0958 17.9312 22.827 17.752 22.3326 17.752H21.4702V22.2336H22.3326C22.827 22.2336 23.0958 22.0544 23.275 21.7856C23.4318 21.5632 23.4878 21.3504 23.4878 19.9936C23.4878 18.648 23.4318 18.4256 23.275 18.2ZM24.619 23.1984C24.0702 23.7472 23.2974 23.9824 22.467 23.9824H19.5086V16.0048H22.467C23.2974 16.0048 24.0702 16.2384 24.619 16.7888C25.5502 17.7184 25.4478 18.7392 25.4478 19.9936C25.4478 21.248 25.5502 22.2688 24.619 23.1984Z" fill="#0052C2"/>
    <path fill-rule="evenodd" clip-rule="evenodd" d="M28.5374 17.7515V19.1531H31.4974V20.9019H28.5374V23.9835H26.5758V16.0043H31.9998V17.7515H28.5374Z" fill="#0052C2"/>
</svg>
