<svg width="32" height="32" viewBox="0 0 32 32" fill="none" xmlns="http://www.w3.org/2000/svg">
    <path fill-rule="evenodd" clip-rule="evenodd" d="M16 8V4.5184L19.4816 8H16ZM16.0048 0H1.6C0.7152 0 0 0.7152 0 1.6V30.4C0 31.2848 0.7152 32 1.6 32H22.4C23.2848 32 24 31.2848 24 30.4V25.6H20.8V28.8H3.2V3.2H12.8V9.6C12.8 10.4848 13.5152 11.2 14.4 11.2H20.8V14.4H24V7.9952L16.0048 0Z" fill="#0052C2"/>
    <path fill-rule="evenodd" clip-rule="evenodd" d="M8.4 17.8014H7.2912V19.4142H8.4C8.9376 19.4142 9.2512 19.0222 9.2512 18.6078C9.2512 18.1934 8.9376 17.8014 8.4 17.8014ZM8.4912 21.1726H7.2912V24.0206H5.3296V16.0414H8.4912C10.2608 16.0414 11.2128 17.2974 11.2128 18.6078C11.2128 19.9182 10.2608 21.1726 8.4912 21.1726Z" fill="#0052C2"/>
    <path fill-rule="evenodd" clip-rule="evenodd" d="M15.1984 17.8014H14.0896V19.4142H15.1984C15.736 19.4142 16.0496 19.0222 16.0496 18.6078C16.0496 18.1934 15.736 17.8014 15.1984 17.8014ZM15.2896 21.1726H14.0896V24.0206H12.128V16.0414H15.2896C17.0592 16.0414 18.0112 17.2974 18.0112 18.6078C18.0112 19.9182 17.0592 21.1726 15.2896 21.1726Z" fill="#0052C2"/>
    <path fill-rule="evenodd" clip-rule="evenodd" d="M22.6032 17.789V24.021H20.64V17.789H18.68V16.0418H24.5648V17.789H22.6032Z" fill="#0052C2"/>
    <path fill-rule="evenodd" clip-rule="evenodd" d="M29.7594 24.0203L28.449 21.5659L27.137 24.0203H24.8954L27.3834 19.9291L25.0538 16.0427H27.2826L28.449 18.2939L29.6138 16.0427H31.8442L29.513 19.9291L31.9994 24.0203H29.7594Z" fill="#0052C2"/>
</svg>
