<svg width="32" height="32" viewBox="0 0 32 32" fill="none" xmlns="http://www.w3.org/2000/svg">
    <g id="Icon">
        <g id="Icon / XLS">
            <path fill-rule="evenodd" clip-rule="evenodd" d="M28.9187 24.0874C27.6963 24.0874 26.6979 23.8634 25.8915 23.0346L27.1475 21.7802C27.5619 22.193 28.2899 22.3386 28.9299 22.3386C29.7027 22.3386 30.0723 22.081 30.0723 21.6218C30.0723 21.4314 30.0275 21.2746 29.9155 21.1514C29.8147 21.0506 29.6467 20.9722 29.3891 20.9386L28.4243 20.8042C27.7187 20.7034 27.1811 20.4682 26.8211 20.0986C26.4531 19.7178 26.2739 19.1802 26.2739 18.4954C26.2739 17.0394 27.3715 15.9754 29.1875 15.9754C30.3299 15.9754 31.1923 16.2442 31.8771 16.9258L30.6435 18.1594C30.1395 17.6538 29.4787 17.689 29.1315 17.689C28.4467 17.689 28.1667 18.081 28.1667 18.4282C28.1667 18.529 28.2019 18.6746 28.3235 18.7978C28.4243 18.8986 28.5939 18.9994 28.8739 19.0346L29.8371 19.169C30.5539 19.2682 31.0707 19.4938 31.4067 19.8298C31.8307 20.2442 32.0003 20.8378 32.0003 21.5786C32.0003 23.201 30.5987 24.0874 28.9187 24.0874Z" fill="#0052C2"/>
            <path fill-rule="evenodd" clip-rule="evenodd" d="M16 8V4.5184L19.4816 8H16ZM16.0048 0H1.6C0.7152 0 0 0.7152 0 1.6V30.4C0 31.2848 0.7152 32 1.6 32H22.4C23.2848 32 24 31.2848 24 30.4V25.6H20.8V28.8H3.2V3.2H12.8V9.6C12.8 10.4848 13.5152 11.2 14.4 11.2H20.8V14.4H24V7.9952L16.0048 0Z" fill="#0052C2"/>
            <path fill-rule="evenodd" clip-rule="evenodd" d="M17.3718 24.0203L16.0614 21.5659L14.7494 24.0203H12.5078L14.9958 19.9291L12.6662 16.0427H14.895L16.0614 18.2939L17.2262 16.0427H19.4566L17.1254 19.9291L19.6118 24.0203H17.3718Z" fill="#0052C2"/>
            <path fill-rule="evenodd" clip-rule="evenodd" d="M20.1922 24.0203V16.0427H22.1538V22.2715H25.5026V24.0203H20.1922Z" fill="#0052C2"/>
        </g>
    </g>
</svg>
