<svg width="32" height="32" viewBox="0 0 32 32" fill="none" xmlns="http://www.w3.org/2000/svg">
    <g id="Icon">
        <g id="Icon / XLSX">
            <path fill-rule="evenodd" clip-rule="evenodd" d="M16 8V4.5184L19.4816 8H16ZM16.0048 0H1.60003C0.715231 0 3.05176e-05 0.7152 3.05176e-05 1.6V30.4C3.05176e-05 31.2848 0.715231 32 1.60003 32H22.4C23.2848 32 24 31.2848 24 30.4V25.6H20.8V28.8H3.20003V3.2H12.8V9.6C12.8 10.4848 13.5152 11.2 14.4 11.2H20.8V14.4H24V7.9952L16.0048 0Z" fill="#0052C2"/>
            <path fill-rule="evenodd" clip-rule="evenodd" d="M10.014 24.0203L8.70363 21.5659L7.39163 24.0203H5.15003L7.63803 19.9291L5.30843 16.0427H7.53723L8.70363 18.2939L9.86843 16.0427H12.0988L9.76763 19.9291L12.254 24.0203H10.014Z" fill="#0052C2"/>
            <path fill-rule="evenodd" clip-rule="evenodd" d="M12.8344 24.0203V16.0427H14.796V22.2715H18.1448V24.0203H12.8344Z" fill="#0052C2"/>
            <path fill-rule="evenodd" clip-rule="evenodd" d="M21.561 24.0873C20.3386 24.0873 19.3402 23.8633 18.5338 23.0345L19.7898 21.7801C20.2042 22.1929 20.9322 22.3385 21.5722 22.3385C22.345 22.3385 22.7146 22.0809 22.7146 21.6217C22.7146 21.4313 22.6698 21.2745 22.5578 21.1513C22.457 21.0505 22.289 20.9721 22.0314 20.9385L21.0666 20.8041C20.361 20.7033 19.8234 20.4681 19.4634 20.0985C19.0954 19.7177 18.9162 19.1801 18.9162 18.4953C18.9162 17.0393 20.0138 15.9753 21.8298 15.9753C22.9722 15.9753 23.8346 16.2441 24.5194 16.9257L23.2858 18.1593C22.7818 17.6537 22.121 17.6889 21.7738 17.6889C21.089 17.6889 20.809 18.0809 20.809 18.4281C20.809 18.5289 20.8442 18.6745 20.9658 18.7977C21.0666 18.8985 21.2362 18.9993 21.5162 19.0345L22.4794 19.1689C23.1962 19.2681 23.713 19.4937 24.049 19.8297C24.473 20.2441 24.6426 20.8377 24.6426 21.5785C24.6426 23.2009 23.241 24.0873 21.561 24.0873Z" fill="#0052C2"/>
            <path fill-rule="evenodd" clip-rule="evenodd" d="M29.7593 24.0203L28.4489 21.5659L27.1369 24.0203H24.8953L27.3833 19.9291L25.0537 16.0427H27.2825L28.4489 18.2939L29.6137 16.0427H31.8441L29.5129 19.9291L31.9993 24.0203H29.7593Z" fill="#0052C2"/>
        </g>
    </g>
</svg>
