<svg width="32" height="32" viewBox="0 0 32 32" fill="none" xmlns="http://www.w3.org/2000/svg">
    <path fill-rule="evenodd" clip-rule="evenodd" d="M16 8V4.5184L19.4816 8H16ZM16.0048 0H1.6C0.7152 0 0 0.7152 0 1.6V30.4C0 31.2848 0.7152 32 1.6 32H22.4C23.2848 32 24 31.2848 24 30.4V25.6H20.8V28.8H3.2V3.2H12.8V9.6C12.8 10.4848 13.5152 11.2 14.4 11.2H20.8V14.4H24V7.9952L16.0048 0Z" fill="#0052C2"/>
    <path fill-rule="evenodd" clip-rule="evenodd" d="M8.97024 18.2374C8.79264 17.9686 8.52224 17.7894 8.02944 17.7894H7.16704V22.271H8.02944C8.52224 22.271 8.79264 22.0918 8.97024 21.823C9.12864 21.6006 9.18464 21.3878 9.18464 20.031C9.18464 18.6854 9.12864 18.463 8.97024 18.2374ZM10.3158 23.2358C9.76704 23.7846 8.99424 24.0198 8.16384 24.0198H5.20544V16.0422H8.16384C8.99424 16.0422 9.76704 16.2758 10.3158 16.8262C11.2454 17.7558 11.1446 18.7766 11.1446 20.031C11.1446 21.2854 11.2454 22.3062 10.3158 23.2358Z" fill="#0052C2"/>
    <path fill-rule="evenodd" clip-rule="evenodd" d="M15.836 18.0702C15.6904 17.8798 15.4104 17.7214 15.052 17.7214C14.6936 17.7214 14.412 17.8798 14.268 18.0702C14.0872 18.3038 13.9768 18.5726 13.9768 20.0318C13.9768 21.4878 14.0872 21.7454 14.268 21.9806C14.412 22.171 14.6936 22.339 15.052 22.339C15.4104 22.339 15.6904 22.171 15.836 21.9806C16.0152 21.7454 16.1288 21.4878 16.1288 20.0318C16.1288 18.5726 16.0152 18.3038 15.836 18.0702ZM17.2808 23.1902C16.7 23.7726 16.0264 24.0878 15.052 24.0878C14.076 24.0878 13.404 23.7726 12.8216 23.1902C11.9816 22.3502 12.0152 21.2302 12.0152 20.0318C12.0152 18.8318 11.9816 17.7102 12.8216 16.8702C13.404 16.2878 14.076 15.9742 15.052 15.9742C16.0264 15.9742 16.7 16.2878 17.2808 16.8702C18.1224 17.7102 18.0888 18.8318 18.0888 20.0318C18.0888 21.2302 18.1224 22.3502 17.2808 23.1902Z" fill="#0052C2"/>
    <path fill-rule="evenodd" clip-rule="evenodd" d="M21.9843 24.0874C21.0547 24.0874 20.3491 23.7738 19.7651 23.1898C18.9251 22.3498 18.9587 21.2298 18.9587 20.0314C18.9587 18.8314 18.9251 17.7114 19.7651 16.8698C20.3491 16.2874 21.0547 15.9754 21.9843 15.9754C23.4963 15.9754 24.7187 16.8138 25.0099 18.5738H23.0163C22.8915 18.1258 22.6451 17.721 21.9955 17.721C21.6371 17.721 21.3683 17.8682 21.2211 18.0586C21.0435 18.2938 20.9203 18.5738 20.9203 20.0314C20.9203 21.4874 21.0435 21.7674 21.2211 22.0026C21.3683 22.193 21.6371 22.3386 21.9955 22.3386C22.6451 22.3386 22.8915 21.9354 23.0163 21.4874H25.0099C24.7187 23.2474 23.4963 24.0874 21.9843 24.0874Z" fill="#0052C2"/>
    <path fill-rule="evenodd" clip-rule="evenodd" d="M29.7578 24.0203L28.4474 21.5659L27.1354 24.0203H24.8954L27.3834 19.9291L25.0522 16.0427H27.281L28.4474 18.2939L29.6122 16.0427H31.8426L29.513 19.9291L31.9994 24.0203H29.7578Z" fill="#0052C2"/>
</svg>
