<svg width="32" height="32" viewBox="0 0 32 32" fill="none" xmlns="http://www.w3.org/2000/svg">
    <path fill-rule="evenodd" clip-rule="evenodd" d="M16 8V4.5184L19.4816 8H16ZM16.0048 0H1.6C0.7152 0 0 0.7152 0 1.6V30.4C0 31.2848 0.7152 32 1.6 32H22.4C23.2848 32 24 31.2848 24 30.4V25.6H20.8V28.8H3.2V3.2H12.8V9.6C12.8 10.4848 13.5152 11.2 14.4 11.2H20.8V14.4H24V7.9952L16.0048 0Z" fill="#0052C2"/>
    <path fill-rule="evenodd" clip-rule="evenodd" d="M15.961 18.2374C15.7834 17.9686 15.513 17.7894 15.0202 17.7894H14.1578V22.271H15.0202C15.513 22.271 15.7834 22.0918 15.961 21.823C16.1194 21.6006 16.1754 21.3878 16.1754 20.031C16.1754 18.6854 16.1194 18.463 15.961 18.2374ZM17.3066 23.2358C16.7578 23.7846 15.985 24.0198 15.1546 24.0198H12.1962V16.0422H15.1546C15.985 16.0422 16.7578 16.2758 17.3066 16.8262C18.2362 17.7558 18.1354 18.7766 18.1354 20.031C18.1354 21.2854 18.2362 22.3062 17.3066 23.2358Z" fill="#0052C2"/>
    <path fill-rule="evenodd" clip-rule="evenodd" d="M22.8266 18.0702C22.681 17.8798 22.401 17.7214 22.0426 17.7214C21.6842 17.7214 21.4026 17.8798 21.2586 18.0702C21.0778 18.3038 20.9674 18.5726 20.9674 20.0318C20.9674 21.4878 21.0778 21.7454 21.2586 21.9806C21.4026 22.171 21.6842 22.339 22.0426 22.339C22.401 22.339 22.681 22.171 22.8266 21.9806C23.0058 21.7454 23.1194 21.4878 23.1194 20.0318C23.1194 18.5726 23.0058 18.3038 22.8266 18.0702ZM24.2714 23.1902C23.6906 23.7726 23.017 24.0878 22.0426 24.0878C21.0666 24.0878 20.3946 23.7726 19.8122 23.1902C18.9722 22.3502 19.0058 21.2302 19.0058 20.0318C19.0058 18.8318 18.9722 17.7102 19.8122 16.8702C20.3946 16.2878 21.0666 15.9742 22.0426 15.9742C23.017 15.9742 23.6906 16.2878 24.2714 16.8702C25.113 17.7102 25.0794 18.8318 25.0794 20.0318C25.0794 21.2302 25.113 22.3502 24.2714 23.1902Z" fill="#0052C2"/>
    <path fill-rule="evenodd" clip-rule="evenodd" d="M28.975 24.0874C28.0454 24.0874 27.3398 23.7738 26.7558 23.1898C25.9158 22.3498 25.9494 21.2298 25.9494 20.0314C25.9494 18.8314 25.9158 17.7114 26.7558 16.8698C27.3398 16.2874 28.0454 15.9754 28.975 15.9754C30.487 15.9754 31.7094 16.8138 32.0006 18.5738H30.007C29.8822 18.1258 29.6358 17.721 28.9862 17.721C28.6278 17.721 28.359 17.8682 28.2118 18.0586C28.0342 18.2938 27.911 18.5738 27.911 20.0314C27.911 21.4874 28.0342 21.7674 28.2118 22.0026C28.359 22.193 28.6278 22.3386 28.9862 22.3386C29.6358 22.3386 29.8822 21.9354 30.007 21.4874H32.0006C31.7094 23.2474 30.487 24.0874 28.975 24.0874Z" fill="#0052C2"/>
</svg>
