<svg width="32" height="32" viewBox="0 0 32 32" fill="none" xmlns="http://www.w3.org/2000/svg">
    <g id="Icon">
        <g id="Icon / Document / ZIP">
            <path d="M15.4366 24.0203V22.4971L18.4958 17.7883H15.571V16.0427H20.8494V17.5659L17.779 22.2715H20.8494V24.0203H15.4366Z" fill="#0052C2"/>
            <path d="M21.9889 24.0199H23.9505V16.0423H21.9889V24.0199Z" fill="#0052C2"/>
            <path fill-rule="evenodd" clip-rule="evenodd" d="M24.5553 7.9952V14.4H21.3553V11.2H14.9553C14.0705 11.2 13.3553 10.4848 13.3553 9.6V3.2H3.7553V28.8H21.3553V25.6H24.5553V30.4C24.5553 31.2848 23.8401 32 22.9553 32H2.1553C1.2705 32 0.555298 31.2848 0.555298 30.4V1.6C0.555298 0.7152 1.2705 0 2.1553 0H16.5601L24.5553 7.9952ZM16.5553 4.51837V7.99997H20.0369L16.5553 4.51837Z" fill="#0052C2"/>
            <path fill-rule="evenodd" clip-rule="evenodd" d="M28.6319 17.8016H27.5231V19.4144H28.6319C29.1695 19.4144 29.4831 19.0224 29.4831 18.608C29.4831 18.1936 29.1695 17.8016 28.6319 17.8016ZM28.7215 21.1728H27.5231V24.0208H25.5615V16.0416H28.7215C30.4911 16.0416 31.4447 17.2976 31.4447 18.608C31.4447 19.9184 30.4911 21.1728 28.7215 21.1728Z" fill="#0052C2"/>
        </g>
    </g>
</svg>
