<svg width="32" height="32" viewBox="0 0 32 32" fill="none" xmlns="http://www.w3.org/2000/svg">
    <g id="Icon">
        <g id="Icon / PPT">
            <path fill-rule="evenodd" clip-rule="evenodd" d="M16 8V4.5184L19.4816 8H16ZM16.0048 0H1.6C0.7152 0 0 0.7152 0 1.6V30.4C0 31.2848 0.7152 32 1.6 32H22.4C23.2848 32 24 31.2848 24 30.4V25.6H20.8V28.8H3.2V3.2H12.8V9.6C12.8 10.4848 13.5152 11.2 14.4 11.2H20.8V14.4H24V7.9952L16.0048 0Z" fill="#0052C2"/>
            <path fill-rule="evenodd" clip-rule="evenodd" d="M15.8374 17.8014H14.7286V19.4142H15.8374C16.375 19.4142 16.6886 19.0222 16.6886 18.6078C16.6886 18.1934 16.375 17.8014 15.8374 17.8014ZM15.927 21.1726H14.7286V24.0206H12.767V16.0414H15.927C17.6966 16.0414 18.6502 17.2974 18.6502 18.6078C18.6502 19.9182 17.6966 21.1726 15.927 21.1726Z" fill="#0052C2"/>
            <path fill-rule="evenodd" clip-rule="evenodd" d="M22.636 17.8014H21.5272V19.4142H22.636C23.1736 19.4142 23.4872 19.0222 23.4872 18.6078C23.4872 18.1934 23.1736 17.8014 22.636 17.8014ZM22.7256 21.1726H21.5272V24.0206H19.5656V16.0414H22.7256C24.4952 16.0414 25.4488 17.2974 25.4488 18.6078C25.4488 19.9182 24.4952 21.1726 22.7256 21.1726Z" fill="#0052C2"/>
            <path fill-rule="evenodd" clip-rule="evenodd" d="M30.039 17.789V24.021H28.0774V17.789H26.1174V16.0418H32.0006V17.789H30.039Z" fill="#0052C2"/>
        </g>
    </g>
</svg>
